/* XPM */
static char *_36a260c944f497ecbf98320b3f3e5e0QNi8xsaAJ9FRaWrQ[] = {
/* columns rows colors chars-per-pixel */
"50 50 50 1 ",
"  c #3D2101",
". c #452600",
"X c #4E2A00",
"o c #5B3302",
"O c #5C3100",
"+ c #593305",
"@ c #613807",
"# c #633807",
"$ c #663C0C",
"% c #008700", x
"& c #267A26", x
"* c #754710",
"= c #9E5706",
"- c #9F5B00",
"; c #9E580C",
": c #AD6309",
"> c #B06400",
", c #BE6A00",
"< c #BD6A04",
"1 c #AB6011",
"2 c #C2700B",
"3 c #D37600",
"4 c #D67908",
"5 c #D97C0B",
"6 c #DB7E14",
"7 c #FF5722",
"8 c #906C43",
"9 c #078007",
"0 c #00A100", x
"q c #00C000", x 
"w c #34A334",
"e c #009800", x
"r c #689F38",
"t c #00C41F",
"y c #55AB55",
"u c #41C200", x
"i c #00A100", x
"p c #EB8300",
"a c #EB8509",
"s c #FF9800",
"d c #E68718",
"f c #AEEA00",
"g c #FFC107",
"h c #FFEB3B",
"j c #8C3B4A", x
"k c #71DB44",
"l c #FFF176",
"z c #F06292",
"x c #00B0FF",
"c c #A5D6A7",
/* pixels */
"u%uiu&u&euj0uuiq0u%0ueuu0ukuujtuu&ufuxxxhxxxqutu0u",
"k0e00uiuu%uqtq0uf0%uj0utuiu0q0iueuuu0xxhhhxxe&ujuf",
"u00utuuruqkuu0reu0yyuquququ0uu00u0qr0xxxhxxxi&r&0u",
"0fuj0uq&&uui0uuuyuuuruu0kutu0juqut%%uqxxxxxuuu&uuk",
"uequuf777fi%uwy%u%iqufu0quuququrut%%%%wxxxu0w%uutu",
"%u0qq77777qu0uqujuyu0q0uquiwu00utuu%%%%%%%fuqukqwu",
"uq%u777g777eu0ueuquO@XXXXXO0ufu0uqi%%%%%%0u0euq%uq",
"00ui77ggg77%uquyuOXX->=>>-XXX XOuuquu0%%%uiuu0iuj0",
"qu%%777g777u%OXX@@->555>1>>=:>- X XOufu0%%uqtu%u0u",
"wq%%%77777q&O@->>555aa,XXX->>=>=>=-X Owu%u0uu0ufuq",
"uk&%%%7770tOX->555a33,Xooo+1<<;>=>>;-XOu%juer&uqti",
"u&ue%%%%%uOX-55333353Xo*8oX3<=<<1:=>=-X0u0u0%ueu&&",
"&uuf%%%%rOX@55a35p333$*oo*X2<21:<1<<>> Ojuyuuu%u%u",
"euwuui%%OX@55XX,33633,X+ooX333<1=<:<=;-Xu%uqf&u&iu",
"j&u0tu%O@-55XooX,33343,XXX,3,X ,<21:=:>XOuf0uw%uue",
"u%uuruiX->a$o*8oX6353332322,XooX<;< <<>-XOuu0uuqyu",
"%0equq0X>55X*oo*X353p343423Xo*8oX< XX,=>-Xqiututu0",
"wuu0ut@X>55$o+$oX3353335333X* o*X1Xo  ,>> uu%u0qqu",
"u%juqOX-6a55X$XX,3334353433,Xo+X2<X*8oX==Xqeuwu0r%",
"uuqui@>>55335333533533633443,X ,1<Xoo* >=XO0qu0uuk",
"e%0tuX>aa5$X,363335,XX,3333333<<<1<X@X<:=- 0uyqfqu",
"uw0u&$>56XooX,36336XooX,363323<<13<<;<=<>>Xsssuu%i",
"0uuur@>5Xo*8oXpd33,$*8oX3343343<<3<=<<:<=>XOsssqu0",
"%ki&&X-5X*$o*Xd4d3X*oo*X3633232<1<<<:<=<<=- gsss&u",
"uuquqOX5@o@o@X3d43$O@ooX3343333<2<1< X ,:>>Xggssuk",
"ru0uj%Xa5$XXX,33p3,X$XX,3433332<<<1X*88X,;> gsssq%",
"i%uwuuX>533a336363333333343324<<1<2Xooo*X>-Xsss%%%",
"queuqyX>aa336p336d6p4pd333633<2<<<<<X ooX=X ss%%%%",
"uju%0uX>53563363d4333d4333434<<<2<1=3,XX-= %%%%%%t",
"eq0fu%X-5a335363333333p33333<<4<<<<1<==<>= u%%%%qu",
"quu0uuOX5536a33,XX,3p33533,XX 23<12<<<<<=>Xu%u0uuk",
"uq0ue0uOX55353,$oo$,33334,Xooo ,<<<3<:<>=- u%uyy0%",
"wuqruqyyX>53a6Xo*8oX55333Xo*88oX3<=<1<=;-XO&%u0yuu",
"u0tu0u%u@-5533$*oo*X35533X*oO@*X<<2:<>>-XOqutwue0j",
"fui0uquyOX>a53Xo@ooX335533Xo oX,2<<<=:-: uru0u0qut",
"0&u&uu0u%X->55,X$$X,536536,Xo X<=3<>;-XOu&%q0fuj00",
"&0kutqyufOX->5a6a3333654533,XX,1<1<=-X yfuuiuq0uwu",
"0u0&uju0ueO@->5a3355555353233<=<<<>>XO0uu&0u%uwi0u",
"jtw&qu0u9uiOX->5553355332321<<2=<=>= &uiqutqk0uqkw",
"uquu0qutyq&uO@X->a5a33325553<1<>;>-.Ou&qu&yuuu0euu",
"0iwfe%0u9u%yuwOX@->>a>44=2>;>=>>-X Oqyuukuu0i00ui&",
"juqu%qj%&tuq%u%u@X@->>2>>>=>>-XXXOuqerk&qu&tuuyjuu",
"u0fuyuqqu%&u0euzzzOXXXXXXXXXXXOuqiuyuuuqufwuq0uquq",
"%0u0ruwukuu0uiuzzlllzzujqu0u0ue%ruwuyqfuququrtu%eu",
"uekuu%u&y%juyuyzzzlzzzquuquru%uu&0uquiu0wiu0quyuu%",
"0uu%0t%u%urqu0u0zzzzz%%uqfuuju&quq0jyuququwuiquk0i",
"uiqueuiufw%utuutuzzz%%%equ0uu&it&cuuqwi0jqu0ue%quf",
"ruqyu%u&uquyu0quq%%%%%%0uk0u&uquu&t0ueu%uetu0uiu0u",
"0ju%qujuy%ru0euju0%%%%wuiuu0ru%e&0uyufixxxu%uj%urq",
"iueufu&uwuu%0u0u0i%%&uqu0f0uutuqui0uj%xxxxxutuufu0"
};
