/* XPM */
static char *ca294fe6f90e42dbe109ea9924e426fdEdAbHOyxL9XQO3iO[] = {
/* columns rows colors chars-per-pixel */
"50 50 35 1 ",
"  c #008700",
". c #267A26",
"X c #827717",
"o c #078007",
"O c #00A100",
"+ c #00C000",
"@ c #34A334",
"# c #009800",
"$ c #689F38",
"% c #44B344",
"& c #55AB55",
"* c #41C200",
"= c #00D167",
"- c #FF9800",
"; c #AEEA00",
": c #FFC107",
"> c #F5CE0A",
", c #FFD600",
"< c #F5F500",
"1 c yellow",
"2 c #F5F50A",
"3 c #FAFA28",
"4 c #FFEB3B",
"5 c #8C3B4A",
"6 c #9CCC65",
"7 c #FADB50",
"8 c #FADE5F",
"9 c #FCE477",
"0 c #FFF176",
"q c #F06292",
"w c #AA00FF",
"e c #00B0FF",
"r c #A5D6A7",
"t c #E6E6E3",
"y c #F9FBE7",
/* pixels */
"* *=*.*.#*5O**=+O* O*#**O*6**5%**.*;*eee4eee+*%*O*",
"6O#OO*=** *+%+O*;O *5O*%*=*O+O=*#***Oee444ee#.*5*;",
"*OO*%**$*+6**O$#*O&&*+*+*+*O**OO*O+$Oeee4eee=.$.O*",
"O;*5O*+..**=O***&***$**O6*%*O5*+*%  *+eeeee***.**6",
"*#+**;112;= *@& * =+*;*O+**+*+*$*%    @eee*O@ **%*",
" *O+3111<11*O*+*5*&*O+O*+*=@*OO*%**       ;*+*6+@*",
"*+ 121112111*O*#*+*$+**5%O*O*;*O*+=      O*O#*+ *+",
"OO*12211<111*+*&*&*&**+***$*O** **+**O   *=**O=*5O",
"+*111211312215. +*=+O6**.+**O 5* #*X*;*O  *+%* *O*",
"@+1111y1<22111*+*;+**O*.**@*#**=o*X*+*@* yO**O*;*+",
"*611111y231111%*%&*&+*5**.*.*.* *X+O5*=*y5*#$.*+%=",
"*.111122y22323+*.O*@*O*.@*+**.*6X*o*+**y*O*O *#*..",
".*3223121y1111&$**+*+*+O.*;5%;;XO%$*O6y*5*&*** * *",
"#*@1111311y111*& &*$O*;*+.+*;;X;O**=*y*O* *+;.*.=*",
"5.*11112111y1;*&=*O**Owww+*=;X;;O*O*yO@=**;O*@ **#",
"* **11131112y,9,7,9,,,,,,,,,X;;>,>,y*+**OO**O**+&*",
" O#+*+11111+*y,,,,7,8,,,,,,X>,,,>,y*%* ;**+=*%*%*O",
"@**O*%*5+O@O**y,9,9,,,,,;;X,,,>,,y*5*O**.$** *O++*",
"* 5*++*O* **O5*y,9,8,,,;;X;,,>,>y*&&*+6+O=+#*@*O$ ",
"**+*=*&*6*O&*OO*y,7,,,,;X;;>,,,y*#**;****+*O+*O**6",
"# O%*.*+&***@+*#*y898,,X;;,,,,y= *&+=*@.*%*O*&+;+*",
"*@O*.*;**+# *o+*O$y,,,X,,,>,>y*$*+O**+OO**=---** =",
"O***$%*&*O**&*&*++*y9,,,,,,,y.  *6*&5O+*#*-----+*O",
" 6=..*&*&*O*5 *;**.*y,,8,>,y+$*+O* *+*5*+---:---.*",
"**+*+*.*+@*O*++*O $+*y,,,,y.**; **#*& ;*@--:::--*6",
"$*O*5 &5*$+#+O*=&***%*y,,y* # **5O+*O**+*---:---+ ",
"= *@**+*.@*.*&*O*& O*&*yt+=* +O+***@* O*O+-----   ",
"+*#*+&O*O*O*+*%*6*+*;*Oyt* *.*O# @O*O$*#*@*---    ",
"*5* O*O%++6*.$+O+*O5* *yt@*+** **%*&** * **      %",
"#+O;* *&.*O ***O*;*+*&#yt*O* =*Oo*& *O&+*O5*    +*",
"+**O**6+*%*#+5+*%*&*&*+yt**$**O6 $**$*&*@*O* *O**6",
"*+O*#O**&** ** =* *$O+*yt$+ *O***Oo5O**5.*+* *&&O ",
"@*+$*+&&*#O**O*+&*&** @yt*O*;OO=O**&*&@**##. *O&**",
"*O%*O* *+5*&=*&*+ *&%*@yt+@**O***$O**O*=.*+*%@*#O5",
";*=O*+*&**O*+*;O*6=** .ytO* O* #O**&;* &&*$*O*O+*%",
"O.*.**O* O*$*O+** **.;*yt*%+*@*O*Oo&*@*+*. +O;*5OO",
".O6*%+&*;*+*+**#O*& ***yt*;5O+O*@*=*&*+&;**=*+O*@*",
"O*O.*5*O*#*O*@*O*+*=* 5yt$**@*+*O+O*O5O**.O* *@=O*",
"5%@.+*O*o*=* *O* 5.*..+yt*&O*O*$*#*%o.*=+*%+6O*+6@",
"*+**O+*%&+.*$+*%*&*+;**yt@*O*; *+ *+o*.+*.&***O#**",
"O=@;# O*o* &*@* *qqq*+.yt+**O**@O*%O+&**6**O=OO*=.",
"5*+* +5 .%*+ * *qqqqq*=ytO*6*O*O* *+#$6.+*.%**&5**",
"*O;*&*++* .*O#*qqq0qqq@yt*OO%*=*+=*&***+*;@*+O*+*+",
" O*O$*@*6**O*=*qq000qqyyttO*O*# $*@*&+;*+*+*$%* #*",
"*#6** *.& 5*&*&qqq0qqyyyytt$* **.O*+*=*O@=*O+*&** ",
"O** O% * *$+*O*Oqqqqyyyyyytt5*.+*+O5&*+*+*@*=+*6O=",
"*=+*#*=*;@ *%**%*qqyyyyyyyttt.=%.r**+@=O5+*O*# +*;",
"$*+&* *.*+*&*O+*+ yyyyyyyyyytt+**.%O*#* *#%*O*=*O*",
"O5* +*5*& $*O#*5*yyyyyyyyyyyytt#.O*&*;=eee* *5 *$+",
"=*#*;*.*@** O*O*O=  .*+*O;O**%*+*=O*5 eeeee*%**;*O"
};
