/* XPM */
static char *_6981577d1e04be2daa8f0516015a856TUeifJoCDE8sOBLM[] = {
/* columns rows colors chars-per-pixel */
"50 50 24 1 ",
"  c #008700", x
". c #267A26",
"X c #FF1F00",
"o c #078007",
"O c #00A100",
"+ c #00C000",
"@ c #34A334",
"# c #009800",
"$ c #689F38",
"% c #00C41F",
"& c #55AB55",
"* c #41C200",
"= c #00D167",
"- c #FF9300",
"; c #71FF00",
": c #FFC600",
"> c #FEF800",
", c #8C3B4A",
"< c #71DB44",
"1 c #FFF176",
"2 c #FF1C8B",
"3 c #D300FF",
"4 c #00A8FF", 
"5 c #A5D6A7",
/* pixels */
"* *=*.*.#*,O**=+O* O*#**O*<**,%**.*;*444>444+*%*O*",
"<O#OO*=** *+%+O*;O *,O*%*=*O+O=*#***O44>>>44#.*,*;",
"*OO*%**$*+<**O$#*O&&*+*+*+*O**OO*O+$O444>444=.$.O*",
"O;*,O*+..**=O***&***$**O<*%*O,*+*%  *+44444***.**<",
"*#+**;XXX;= *@& * =+*;*O+**+*+*$*%    @444*O@ **%*",
" *O++XXXXX+*O*+*,*&*O+O*+*=@*OO*%**       ;*+*<+@*",
"*+ *XXX:XXX#*O*#*+*$+**,%O*O*;*O*+=      O*O#*+ *+",
"OO*=XX:::XX *+*&*&*&**+***$*O** **+**O   *=**O=*,O",
"+*  XXX:XXX* ,. +*=+O<**.+**O ,* #*.*;*O  *+%* *O*",
"@+   XXXXX+.O**+*;+**O*.**@*#**=o***+*@* *O**O*;*+",
"*<.   XXXO%**+%*%&*&+*,**.*.*.* *.+O,*=* ,*#$.*+%=",
"*.*#     *O*#*+*.O*@*O*.@*+**.*<**o*+**O*O*O *#*..",
".**;    $**#*O&$**+*+*+O.*;,%*O*O%$*O<O*,*&*** * *",
"#*@**=  * *****& &*$O*;*+.+* **@O**=***O* *+;.*.=*",
",.*O%*  *O*$O;*&=*O**O333+*=*$O*O*O*+O@=**;O*@ **#",
"* **$*= @*&*O&&O***@+33333. **O*,@*O*+**OO**O**+&*",
" O#+*+O *+*+*O*OO# *3331333+*+*O**=*%* ;**+=*%*%*O",
"@**O*%*,+O@O**O*** *3311133*#*@*&**,*O**.$** *O++*",
"* ,*++*O* **O,*O%O*,3331333=*.* $*&&*+<+O=+#*@*O$ ",
"**+*=*&*<*O&*OO**O&. 33333   *.**#**;****+*O+*O**<",
"# O%*.*+&***@+*#**    333    *+= *&+=*@.*%*O*&+;+*",
"*@O*.*;**+# *o+*O$          * *$*+O**+OO**=---** =",
"O***$%*&*O**&*&*++*         *.  *<*&,O+*#*-----+*O",
" <=..*&*&*O*, *;**.*      +*+$*+O* *+*,*+---:---.*",
"**+*+*.*+@*O*++*O $+* & * *.**; **#*& ;*@--:::--*<",
"$*O*, &,*$+#+O*=&***%** <O* # **,O+*O**+*---:---+ ",
"= *@**+*.@*.*&*O*& O*&*&*+=* +O+***@* O*O+-----   ",
"+*#*+&O*O*O*+*%*<*+*;*O*O* *.*O# @O*O$*#*@*---    ",
"*,* O*O%++<*.$+O+*O,* *OO@*+** **%*&** * **      %",
"#+O;* *&.*O ***O*;*+*&# +*O* =*Oo*& *O&+*O,*    +*",
"+**O**<+*%*#+,+*%*&*&*+*%**$**O< $**$*&*@*O* *O**<",
"*+O*#O**&** ** =* *$O+*O*$+ *O***Oo,O**,.*+* *&&O ",
"@*+$*+&&*#O**O*+&*&** @*=*O*;OO=O**&*&@**##. *O&**",
"*O%*O* *+,*&=*&*+ *&%*@ *+@**O***$O**O*=.*+*%@*#O,",
";*=O*+*&**O*+*;O*<=** .*OO* O* #O**&;* &&*$*O*O+*%",
"O.*.**O* O*$*O+** **.;*#**%+*@*O*Oo&*@*+*. +O;*,OO",
".O<*%+&*;*+*+**#O*& ***O+*;,O+O*@*=*&*+&;**=*+O*@*",
"O*O.*,*O*#*O*@*O*+*=* ,*+$**@*+*O+O*O,O**.O* *@=O*",
",%@.+*O*o*=* *O* ,.*..+*O*&O*O*$*#*%o.*=+*%+<O*+<@",
"*+**O+*%&+.*$+*%*&*+;**@*@*O*; *+ *+o*.+*.&***O#**",
"O=@;# O*o* &*@* *222*+.+*+**O**@O*%O+&**<**O=OO*=.",
",*+* +, .%*+ * *22222*=*.O*<*O*O* *+#$<.+*.%**&,**",
"*O;*&*++* .*O#*2221222@*#*OO%*=*+=*&***+*;@*+O*+*+",
" O*O$*@*<**O*=*2211122*,+*O*O*# $*@*&+;*+*+*$%* #*",
"*#<** *.& ,*&*&2221222+**+*$* **.O*+*=*O@=*O+*&** ",
"O** O% * *$+*O*O22222  *+;**,*.+*+O,&*+*+*@*=+*<O=",
"*=+*#*=*;@ *%**%*222   #+*O**.=%.5**+@=O,+*O*# +*;",
"$*+&* *.*+*&*O+*+      O*<O*.*+**.%O*#* *#%*O*=*O*",
"O,* +*,*& $*O#*,*O    @*=**O$* #.O*&*;=444* *, *$+",
"=*#*;*.*@** O*O*O=  .*+*O;O**%*+*=O*, 44444*%**;*O"
};
