/* XPM */
static char *e668d652f6b2461ad7c4dc26f2176875TWEwPBYPXA2x8GwJ[] = {
/* columns rows colors chars-per-pixel */
"50 50 26 1 ",
"  c #156194",
". c #0D47A1",
"X c #1553B0",
"o c #226EA8",
"O c #227CBD",
"+ c #3872BD",
"@ c #1D6CCC",
"# c #1378D1",
"$ c #1F7ED1",
"% c #0F83DB",
"& c #2C8CDB",
"* c #21A0DB",
"= c #1E88E5",
"- c #1C8EE6",
"; c #389BEB",
": c #2196F3",
"> c #17A2E8",
", c #26ABED",
"< c #4A8EC2",
"1 c #449DC7",
"2 c #4984D6",
"3 c #6A9DE8",
"4 c #4CA6EB",
"5 c #64B5F6",
"6 c #5DC5F5",
"7 c #90CAF9",
/* pixels */
",,,,::4#:4:&4:,,==7&4==,=&4==,=<*=4=7==::4:&:%4:::",
"5,=,:$::::::::==,,---4:::4%%=&::=:,,,--=:&$::%&;-4",
"   :::::#%4:#=::,#4--:4:::%%=::o:=4:---4=:::4:    ",
"::  %&::$::::=::::&:::::::::=4::::=:----=::::  74&",
":::   *1*16*=4===;===5======::$:,::=4::-5:>   ,,,-",
"4o:5:  4====:&:::4::4:::%4=======7=4=&===   :::::4",
"::=4:==:;;:=:<::::$:::4===:4:&=::::       ::===;=:",
"$:$==;::5:=:::<:,,,,===:,::=:::=:4:::=::::=::=#,,:",
":::=-===4=4%%*::,,==:>#<:::=:<;:=:%%:o==--=4::::4:",
",;=::---::&=4:*:1=,,:44:#:&=:::&=:%%:::==-==::o%:,",
":4=::::#::=:4===<=;,::O::::=$%;::=::<4::=;==:4%:4:",
":#=,----::=::;4>>:===:::4::47%%+#=,::>#:----:::,::",
":#,,:::,::=:==:::::4:=======::O::=,::;;5;$::4$:::4",
",=,;4&&:,4:=:::4+%%::-:::::===:,,:=::4:#::&:::4:7=",
"=,,,::::::$=7>::=:%:::4--::=:>====4====:::::4====%",
"4$:::o:%%=:=>>4$=4::&----;:4:>4:::=::::4=,=7==>:%%",
"=:*&:::4%=:=:=::::,:,----=:=&:::::=:#%%:,,,,;:::4:",
"#*:>4$:==::=::*:$:,*,:4:.......::==::%%:4:5:%4:::;",
"=::>>:*=::4=-4:::&*4:=...4:=4:...4=:5;4:,:::====::",
"=7:;<::=#;-=:::4:&,,,..::::=::4:...:::======:<::=&",
"*:::+:=:;====4#==.....=4=4==:::--7...=::::4::::4::",
"=%%:=====---=::;::o::::$:%%==#=====::::$:::o=:$:--",
"====,1=4::5::=::4::=>>::7,=:====$:=:++:::::::5:::4",
"*:$:;=:,::::::=:::4:>>4,;===4::::===:::%&4:::::--:",
"=4:O:=:22$,,,2=:;:::::==:,=::<::::=1=::%%---;,,,-<",
":=:::=::::,,$,:=:::===2,,:=:::4:#=:4:==:--#-,,,,::",
":=::4=::<+,,5;:=4===4-;-::=::::2%=:::::==-;-::&::4",
":=#5=%,--:4:,,:;=%::----;=&>;<::+=,,,,:::=::,4,,:#",
"::=:=%:-@@@@@@@@=:::&---:45>:::5:=:+:*:=:,==:::<%;",
"4:=:=::@@-:::=@@@=::--=4=:,:4:::=:4::&::::::5=::%7",
"::=:=@@@--:==:::@@@===:4::$::::=::::;=5&:2::::=4:=",
"$:@@@@::&::=&====@@@@::::<::,:=:$::<::::+:4=1::=:*",
"4::==<:o::=#=:4:;::=@@@@@,%:::=:;:O:*:=:::#:::::==",
"::::=:::;=$,::4::o:4:==:::::=;:::>>:&:::4<:::%:&>=",
":,,:====4:::<:::+:4::,;4==4=::&::#1:::%#::=:,%:::4",
":=4==*==::4:,,,#:::<:,,,,::%%4:O:::o::%%:::::====:",
"=,7,:=;::$,:4$,,:----,,::4::::::::4::$===&===:::$:",
"=,,,:===%%::,,,,:----,:4,===4====*====:4::,,::<;::",
"=:4:=:=*=========4;======::,#,,:::=*=-::#:7,,&::4:",
"=::==#====:::74:::::-:::44:,,,=4=;=-4:::::,,:-4:::",
"4==$=::::*=:::::,::O:::::::=;=322::::$4:::::---::o",
"=-4-=4&5:::======:#:::+:=XXXXXXXXX3::::&4:o::::,=:",
"=#--<::::%%::======4===XXX::::4:<XXXX3::::>:;&===:",
"=----:,,,$%:$:::====XXXX7:$::5::::>>XXXX::>:XXXXX:",
"4==;::,,,:::4::4:-XXX24%%:::4:%%o:>>:::XXXXXX:%%XX",
":::====4:::<:::XXXX:::===4::::;%:::=,4,,:=4:7:%%4:",
":74::,+#===:4::::::#::::::===:::::::,,===5:%&:::::",
"$:::&%:o:#:==::----:::o4,,:::====4&===:::4%%:::4>>",
":4::%%;:::>>===4:&;%:4:,&,4::#:4:::::,,,4:;:4#::>>",
":::$::<:4;7:::::==4=*=,==*=<==7==,==4::::::::::$::"
};
