/* XPM */
static char *_292269e5b32480c968c19de11a469e4Ghk6waBwGiyWHFlT[] = {
/* columns rows colors chars-per-pixel */
"50 50 9 1 ",
"  c black",
". c #205E5A",
"X c #CF2727",
"o c #2E997B",
"O c #FF8400",
"+ c #FFB700",
"@ c #FFEB3B",
"# c #2AD482",
"$ c #2196F3",
/* pixels */
"@@@@@@@@@@@@@@@@@@@@@@@@@@@@@@@@@@@@@@@@@@@@@@@@@@",
"@@@@@@@@@@@@@@@@@@@@@@@@@@@@@@@@@@@@@@@@@@@@@@@@@@",
"@@@@@@@@@@@@@@@@@@@@@@@@@@@@@@@@@@@@@@@@@@@@@@@@@@",
"@@@@@@@@@@@@@@@@@@@@@@@@@@@@@@@@@@@@@@@@@@@@@@@@@@",
"@@@@@@@@@@@@@@@@@@@@@@@@@@@@@@@@@@@@@@@@@@@@@@@@@@",
"@@@@@@@@@@oooooooo@@@@@@@@@@@@@@oooooooo@@@@@@@@@@",
"@@@@@@@@@@oooooooo@@@@@@@@@@@@@@oooooooo@@@@@@@@@@",
"@@@@@@@@oo########ooo@@@..@@@ooo########oo@@@@@@@@",
"@@@@@@@@@@...ooo#####...oo...########ooo@@@@@@@@@@",
"@@@@@@@@@@...ooo#####...oo...########ooo@@@@@@@@@@",
"@@@@@@@@..ooo########oooooooo###########oo@@@@@@@@",
"@@@@@@@@..ooo########oooooooo###########oo@@@@@@@@",
"@@@@@...oooooooo##oooooooooooooo##########ooo@@@@@",
"@@@@@...oo......ooooo###oo######oo...ooo##ooo@@@@@",
"@@@@@...oo......ooooo###oo######oo...ooo##ooo@@@@@",
"@@@@@@@@..@@@@@@..ooo###########..@@@@@@oo@@@@@@@@",
"@@@@@@@@..@@@@@@..ooo###########..@@@@@@oo@@@@@@@@",
"@@@@@@@@@@@@@@@@XXooo###########OO@@@@@@@@@@@@@@@@",
"@@@@@@@@@@XXXXXXOOXXXXXXXXOOOOOO++OOOOOO@@@@@@@@@@",
"@@@@@@@@@@XXXXXXOOXXXXXXXXOOOOOO++OOOOOO@@@@@@@@@@",
"        XXOOOOOOOOOOOOOOOO++++++++++++++OO        ",
"$$$$$$$$XXOOOOOOOOOOOOOOOO++++++++++++++OO$$$$$$$$",
"$$$$$$$$XXOOOOOOXXXXX+++XXXXX+++OOOOO+++OO$$$$$$$$",
"$$$$$$$$XXXXXOOOXXXXX+++++++++++OOOOO+++OO$$$$$$$$",
"$$$$$$$$XXXXXOOOXXXXX+++++++++++OOOOO+++OO$$$$$$$$",
"$$$$$$$$XXXXXOOOOO++++++OOOOO+++++++++++OO$$$$$$$$",
"$$$$$$$$XXXXXOOOOO++++++OOOOO+++++++++++OO$$$$$$$$",
"$$$$$$$$XXOOOOOOXXXXX+++OOOOO+++OOOOO+++OO$$$$$$$$",
"$$$$$$$$XXOOOOOOXXXXX+++OOOOO+++OOOOO+++OO$$$$$$$$",
"$$$$$$$$XXXXXOOOXXXXX+++++++++++OOOOO+++OO$$$$$$$$",
"$$$$$$$$XXXXXOOOOO++++++OOOOO+++++++++++OO$$$$$$$$",
"$$$$$$$$XXXXXOOOOO++++++OOOOO+++++++++++OO$$$$$$$$",
"$$$$$$$$XXOOOOOOXXXXX+++OOOOO+++OOOOO+++OO$$$$$$$$",
"$$$$$$$$XXOOOOOOXXXXX+++OOOOO+++OOOOO+++OO$$$$$$$$",
"$$$$$$$$XXXXXOOOXXXXX+++++++++++OOOOO+++OO$$$$$$$$",
"$$$$$$$$XXOOOOOOOO++++++OOOOO+++++++++++OO$$$$$$$$",
"$$$$$$$$XXOOOOOOOO++++++OOOOO+++++++++++OO$$$$$$$$",
"$$$$$$$$XXOOOOOOOOOOO+++++++++++++++++++OO$$$$$$$$",
"$$$$$$$$XXOOOOOOOOOOO+++++++++++++++++++OO$$$$$$$$",
"$$$$$$$$$$XXXXXXOOOOOOOOOOOOOOOOOOXXXOOO$$$$$$$$$$",
"$$$$$$$$$$$$$$$$XXXXXXXXXXXXXXXXXX$$$$$$$$$$$$$$$$",
"$$$$$$$$$$$$$$$$XXXXXXXXXXXXXXXXXX$$$$$$$$$$$$$$$$",
"$$$$$$$$$$$$$$$$$$$$$$$$$$$$$$$$$$$$$$$$$$$$$$$$$$",
"$$$$$$$$$$$$$$$$$$$$$$$$$$$$$$$$$$$$$$$$$$$$$$$$$$",
"$$$$$$$$$$$$$$$$$$$$$$$$$$$$$$$$$$$$$$$$$$$$$$$$$$",
"$$$$$$$$$$$$$$$$$$$$$$$$$$$$$$$$$$$$$$$$$$$$$$$$$$",
"$$$$$$$$$$$$$$$$$$$$$$$$$$$$$$$$$$$$$$$$$$$$$$$$$$",
"$$$$$$$$$$$$$$$$$$$$$$$$$$$$$$$$$$$$$$$$$$$$$$$$$$",
"$$$$$$$$$$$$$$$$$$$$$$$$$$$$$$$$$$$$$$$$$$$$$$$$$$",
"$$$$$$$$$$$$$$$$$$$$$$$$$$$$$$$$$$$$$$$$$$$$$$$$$$"
};
