/* XPM */
static char *ebe2af4a781c452df055b515f9f37270K8lr66WPBm6pCaCb[] = {
/* columns rows colors chars-per-pixel */
"100 100 5 1 ",
"  c black",
". c #010001",
"X c #FEFEFE",
"o c #FEFEFF",
"O c white",
/* pixels */
"OOOOOOOOOOOOOOOOOXOOOOOOOOXOOOXOOOXOOOOXOOOOOXOOOXOOOOOOOOOOOOOOOOOOOOOXOOOOOOOXOXOOXOOOOOOOOOOOOOOO",
"OOOOOOOOOOOOOOOOOXOOOOOOOOOXOOOOOOOOXXOOOOOOOOOXOOOOOOOOOOOOOOOXXOOOOOOOOOXOXOOOOXOOOXXOOOOOOOOOOOOO",
"OO      OOOOOOOOOOOOXOOOOOOOOOOOOXOOOOOXXOOOXOOOXOOOXOOOXOOXOOOOOOOXOXOXOOOOOXXOOOOOOOOOOOO       OO",
"OO OOOOOOOOOOOOOOOOOOOOOOXOXOXOOOOOOOOOOOOOOXOOOOOOOOOOXOOOOOOOOOOOOOOOOOOOOOOOOOOOOOOOXOOOOOOOOO OO",
"OO OOOOOOXOOOOOOOOOOXOOOXOOOOOOOXXOOOOOOXOOOOOOOOOOOXXOXOXOOOOOOXOOOOOOXOOOXOOOOOOOXOOOOOOXXOOOOO OO",
"OO OOOOOOOOXOOOOXXOOOOXOOOOOOOOOOOOOXOOOOOOOOOOXOOOOOXOOOOXOOOOOXOOOOOOOOOOOOOOOOOOXOOOOXOXOOOOOO OO",
"OO OOOOOXOOOOOOOXOXXOOOXOOOOOOOOXOOOXOOOOOXOOOOOOXOOOOOOXXOXOOOOOOOOOOOOOOOOOOOOOOOOOOOOOOXOOXOOO OO",
"OO OOOOOOOOXOOOOOOOOOOOOOOXOOOOXOOOOOOXOOOOOOOOOOOOOOOOOOOOXOOOOOOXOOOOXOOOOOOXOOOXOOXXOOOOOXOXOO OO",
"OO OOXOXOXXOOOOOOOOXXOOOOOOOOOOOOOOXOOOOOOOOOOXXXOOOOOOOXOOOOOOOOOOOOOOOOOOOOOOOOOXXOOOXOOOOOOOOO OO",
"OOOOOXOOOOOXXOOOOOOXOOOOOOOOOOOOOXOOOOXOOOOOXOOOOXXXOOOOOOOOXOOOOXOOOOOOOOOOOOOOOOOOOOOOOOXOOOOXOOOO",
"OOOXOOOOOOOOOOXOOOOXOXOOOOOOOOOOOXOOOOOOOOOOOOXOOOOOOOXOOOOOOOXOOOOOOXOOOOOOOOOOOOXOOOOOOOOOOOOOOOOO",
"OOOOOOOOOOOOOOOOOXXXOOOOOOOOOOOOOOOXXOOOOOOOOOOOOOOOOOOOOOXOOXXOOOOOOXOOOOOOOOOOXOXOOOOOOOOOOOXOOOOO",
"OOOOOOOXOOOOOOXOOXOOXOOXOOOOOOOOXOOOXOOOOOOOOXOXOOOOXOOOOOOOOOXOOOOOOOOOOOOOOOOOXOXOXOOOXOOOXOXXOOOO",
"OOOOOOOOOOOOOOXOOXOOOOOOOOOOOOOOOOOXOXXOOOOOOOOOOOOOOOOXOOOXOXOOOXOOOOOOOOOOOOOOOOOOOXOOOOOOXOXXOOOO",
"OOOOOOOOOOXOOXOOOXXOOOOOOOOOOOOOOOOOOOOOOOOOOOOOOOOOOOOOOOOOOOOOXOOXOOOOXOOOOOOOOOOOOXOXOOOOOOOOOOOO",
"OOOOOOOOOOOXOXOOXOOXOOOOOXXOOOOOOOOOOOOXOOOOOXXXOOOOOOOOOOOOOOOOOOOOOOOOOOOOOOOOXOOOOOOOOXOOOOXOOOOO",
"OOOOOOOOOOOOOOOOOOOOOOOOOOOOOOOOOOOOOOOOOOOOOOOOOOOOOOOOOOOOOOOOOOOOOOOOOOOOOOOOOOOOOOOOOOOOOOOOOOOO",
"                                                                                                    ",
"                                                                                                    ",
"                                                                                                    ",
"                                                                                                    ",
"OOOOOOOOOOOOOOOOOOOOOOOOOOOOOOOOOOOOOOOOOOOOXOOOOOOOOOOOOOOOOOOOOOOOOOOOOOOOOOOOOOOOOOOOOOOOOXOOOOOO",
"OOOOOOOOOOOOOOOXOOOOOOOOOOOOOOOOOOOOOOOOOOOOOXXOOOOOOOOOOOOOOOOOOOOOOOOXOOOOOOOOOOOOOOOOOOOOOOXOOOOO",
"OOOOOOOOOOOOOOOXOOOOOOOOOOOOOOOOOOOOOOOOOOOOOOOXOOOOOOOOOOOOOOOOOOOOOOOOOOOOOOOOOOOOOOOOOOOOOOOOOOOO",
"OOOOOOOOOOOOOOOOOOOOOOOOOOOOOOXOOOOOOOOOOOOOOOOOXOXOOOOOOOOOOOOOOOOOOOOOOXOOOXOOOOOOOOOOOOOXXOOOOOOO",
"OOOOOOOXOOXOOOOOOOOOOOOOXOXOOOOOOOOOOOOOXOXOOOOOXOOOOOOOOOOOOOOOOOOOOXOXOOOOOOXOOOOOOOOOOXOOXOOOOOOO",
"OOOOOOOOOOXOXOXOOOOOOXOOOOOOOOOOOOOOOOOOOOOOOOOXOOOOOOXOOOOOOOOOXOOXOOOOOOOOOXOOOOOOOOOOOOXOOOOXOOOO",
"OOOOOOOOOOOOOOOOOOOOOXOOOXOXOOOOOOOOOOOOOOOOOXOOOOOOOXXOOOOOOOOOOOOOXXOOXOOOOOOOOOOOOOOOOOOOXOOOOOOO",
"OOOOOOOOOOOOOOOOOOOOOOOOOOOOOOOOOOOOOOOOXOOOOOOOOOOOOOOOOOOOOOOOXXOOOOOOOOOOOOOOOOOOOOOOOOXXOOOOOOOO",
"OOOOOOOXOXOOXOXOOOOOOOOOOOOOOOOOOOOOOOOOXOXOOOOOOOOXOOOOXOOOOOOOOOOOXOXOOOXOOOOOOOOXOOOOOOOOOOOOOOOO",
"OOOOOOOOXOOOOOOOOOOOOOOOXOOXOOOOOXOOOOOOOOOOOOOOOXOOOXXOOOOOOOOOOOOOOOOOOOOXOOXOXOOOOOOOOOOOOOOOOOOO",
"OOOOOOOOOOOOOOOXOOOOOOOOOXOOOOXXOOOOOOOOXOOXOOXOOOOOOXOXOOOXOOOOOOXOOOOOOOOOXOOOOOOOOOOOOOOOOOOOOOOO",
"OOOOOOOOOOOOOOOOOOOOOOOOOOOOOOOOOOOOOOOOOOOOOOOOOOOOOOOOOOOOOOOOOOOOOOOOOOOOOOOOOOOOOOOOOOOOOOOOOOOO",
"OOOOOOOOOOOOOOOOOOOOOOOOOOOOOOOOOXOOOOXXOOOOOOOOOOOOOOOOOOOOOOOOOOOOOOOOOOOOOOOOOOOOOOOOOOOOOOOOOOOO",
"OOOOOOOOOOOOOOOOOOOOOOOOOOOOOOOOXXOOOOOXOOOOOOOOOOOOOOOOOOOOOOOOOOOOOOOOOOOOOOOOOOOOOOOOOOOOOOOOOOOO",
"OOOOOOOOOOOOOOOOOOOOOOOOOOOOOOOOXOOOOXXOOOOOOOOOOOOOOOOOOOOOOOOOOOOOOOOOOOOOOOOOOOOOOOOOOOOOOOOOOOOO",
"                                                                                                    ",
"                                                                                                    ",
"                                                                                                    ",
"                                                                                                    ",
"OOOOOOOOOOOXOOOOOOOOOOOOOOOOOXOOOOOOOXOOOOOOXOOXOOOOOOOOOOOOOOOOOOOOOOXOOOOOOOOOOOOOOOOOOOOOOOOOOOOO",
"OOOOOOOOOOOOOOOXOOOOOOOOOOOXOOOOOOOOOOOXOOXOXXOOOXOOXOXOOOOOOOOOOOOOOOOOOOOOOOOOOOOOOOOOOOOOOXOOOOOO",
"OOOOOOOOOOXOXOOOOOOOOOOOOOOOOOOOOOOOOOOOOOOOXOOOOXXOOOOOOOOOOOOOOOOOOOOOOOOOOOOOOOOOOOOOOOOOOOOOOOOO",
"OOOOOOOOOXOOOOXOOOOOOOOOOOOOXOOOOOOOOOOOOXOOOOOOOOOOOOOOOOOOOOOOOOOOOOOOOXOOOOOOOOOOOOOOXOOOOOOOOOOO",
"OOOOOOOOOOOOOOOOOOOOOOOOOXOOOOOOOOOOOOOOOOXXOOOOOOOOOOOOOOOOOOOOOOOOOOOXOOOOOOOOOOOOOOOOOOXOXOOOOOOO",
"OOOOOOOOOOXOXXOOOOOOOOOOOOOOOOOOOOOOOOOOOXOOOOXXOOOOXOOOOOOOOOOOOOXXXXOXOOOOOOOOOOOOOOOOOOOOOOOXOOOO",
"OOOOOOOOOOOOOOOOOOOOOOOOOOOOOOOOOOOOOOOOOXOOOOXOOOXOOOOOOOOOOOOOOOOOOOOOOOOOOOOOOOOOOOOOOXOOOOXXOOOO",
"OOOOOOOOOOOOOOOOOOOOOOOOOOOOOOOOOOOOOOOOOOOOOOOXOOOXOXOOOOOOOOOOXOOXOOOOOOOOOOOOOOOOOOOOOOOOOOOXOOOO",
"OOOOOOOOOOOOOOOOOOOOOOOOOOOOOOOOOOOOOOOOOOOOOOOOOXOOOOOOOOOOOOOOOOOOOOOOOOOOOOOOOOOOOOOOOOOOOOOOOOOO",
"OOXOOOOOOOOOOOOOOOOOOOOOOOOOOOOOOOOOOOOOOOOOOOOOOOOOOOOOOOOOOOOXOOOOOOOOOOOOOOOOOOOOOOOOOOOOOOOOOOOO",
"OXXOOOOOOOOOOOOOOOOOOOOOOOOOOOOOOOOOOOOOOOOOOOOOOOOOOOOOOOOOOOOOOOOOOOOOOOOOOOOOOOOOOOOOOOOOOOOOOOOO",
"OOOOOOOOOOOOOOOOOOOOOOOOOOOOOOOOOOOOOOOOOOOOOOOOOOOOOOOOOOOOOOOOOOOOOOOOXOOOOOOOOOOOOOOOOOOOOOOOOOOO",
"OXOOOOOOOOOOOOOOOOOOOOOOOOOOOOOOOOOOOOOOOOOOOOOOOOOOOOOOOOOOXOOOOOOOOOOOOOOOOOOOOOOOOOOOOOOOOOOOOOOO",
"                                                                                                    ",
"                                                                                                    ",
"                                                                                                    ",
"                                                                                                    ",
"OOOOOOOOOOOOOOOOOOOOOOOOOOOOOOOOOOOOOOOOOXOOOOOOOOOOOOOOOOOOOOOOOOOOOOOOOOOOOOOOOOOOOOOOOXOOOOOOOOOO",
"OOOOOOOXOOOOOOOOOOOOOOOOOOOOOOOOOOOOOOOOOOXXOOOOOOOOOOOXOOOOOOOOXOOOOOOOOOOOOOOOOOOOOOOOXXOOOOOOOOOO",
"OOOOOOOXOOOOOOOOOOOXOOOOOOOOOOOOOOOOOOOOOOOOOOOOOOOOOOXOOOOOOOOOOOOXOOOOOOOOOOOOOOOOOOOOOOOOOOOOOOOO",
"OOOOXOOOOOOOOOOOOOOOOOOOOOOOOOOOOOOOOOOOOOOOOOOOOOOOOOOXOOOOOOOOOOOOOOOOOOOOOOOOOOOOOOOOOXXOOOOOOOOO",
"OOOOOOOOOOOOOOOOOOOOOOOOOOOOOOOOOOOOOOOOOOOOOOOOOOOOOOOOOOOOOOOOOOOOOOOOOOOOOOOOOOOOOOOOOXOOOOOOOOOO",
"OOOOOOXXOOOOOOOOOOOOOOOOOOOOOOOOOOOOOOOOOOOOOOOOOOOOXOOOOOOOOOOOOOOOOOOOOOOOOOOOOOOOOOOOOOOOOOOOOOOO",
"OOOOOOOOOOOOOOOOOOOOOOOOOOOOOOOOOOOOOOOOOOOOOOOOOOOOOOOOOOOOOOOOOOOOOOOOOOOOOOOOOOOOOOOOOOOOOOOOOOOO",
"OOOOOOOOOOOOOOOOOOOOOOOOOOOOOOOOOOOOOOOOOOOOOOOOOOOOOOOOOOOOOOOOOOOOOOOOOOOOOOOOOOOOOOOOOOOOOOOOOOOO",
"OOOOOXXOOOOOOOOOOOOOOOOOOOOOOOOOOOOOOOOOOOOOOOOOOOOOOOOOOOOOOOOOOOOOOOOOOOOOOOOOOOOOOOOOOOOOOOOOOOOO",
"OOOOOOOOOOOOOOOOOOOOOOOOOOOOOOOOOOOOOOOOOOOOOOOOOOOOOOOOOOOOOOOOOOOOOOOOOOOOOOOOOOOOOOOOOOOOOOOOOOOO",
"OOOOOOOOOOOOOOOOOOOOOOOOOOOOOOOOOOOOOOOOOOOOOOOOOOOOOOOOOOOOOOOOOOOOOOOOOOOOOOOOOXOOOOOOOOOOOOOOOOOO",
"                                                                                                    ",
"                                                                                                    ",
"                                                                                                    ",
"                                                                                                    ",
"OOOOOOOXOOOOXOOOXOOOOOOOOOOOOOOOOOXOXOOXOOOOOOOOOOOOOXOOOOOOOOXOOOOOOOOOXOOOOOOOXOXOOXOOOOOOOOOOOOOO",
"OOOOOOOOOXOOXOOOXXOXOXOOOOOOOOOOOOOOOOOOOOOOOOOOOOOOOOOXOOOOOOXOOOOOOXOOOOOOOOOOOOOOOOOXOOOOOOOOOOOO",
"OOOOOOOOXOXOOOOOOXOXOXOOOOOOOOOOOOOOOOOXXOOOOOOOOOOOOOOOOOOOXOOOOOOOOOOXOOOOOOOOOOOOOOOOOOOOOOOOOOOO",
"OOOOOOOOOOOOOOOXOOOOOXOOOOOOOOOOXOOOXXXOOOOOOOOOOOOOOOOOOOXOOOOOOOOOOOOOXOXOOOOOOOOXXOOOOOOOOOOOOOOO",
"OOOOOOOOOOOOOOOOOOOXOOOOOOOOOOOOOOOOOOOOOXOOOOOOOOOOOOOOOOXOOOOXOOOOOOOOOOOXOOOOOOOXOOOOXOOOOOOOOOOO",
"OOOOOOOOOOOOOXOOOOXOOOOOOOOOOOOOOXOXOXOOOXOXOOOOOOOOOOOOOOOOOXXOOOOOOOOOOOOOOOOOOOOOOOOOOOXOOOOOOOOO",
"OOOOOOOOOOOOOOOOOOXOOOOOOOOOOOOOOXOOOOXOOXOOOOOOOOOOOOOOOOOOXOOOOOOOOOOOOOOXXOOOXOOOOOOXXOOOOOOOOOOO",
"OOOOOOOOOOOOOXOXXOOOOOOOOOOOOOOOOOOOOOOXOOOOOOOOOOOOOOOOOXOOOOOOOOOOOOOXOOXOOOXOOXOOOOXXOXXXOOXOOOOO",
"OOOOOOOOOOOOOOOOXOOOOOOOOOOOOOOOOOOOOOOOOOOOOOOOOOOOOOOOOOOOOOOOOOOOOOOOOOOOOOOOOOXOOOOOOOOOOOOOOOOO",
"OOOOOOOOOOOOOOOOOOOOOOOOOOOOOOOOOOOOOOOOOOOOOOOOOOOOOOOOOOOOOOOOOOOOOOOOOOOOOOOOOOOXOOOOOOOOOOOOOOOO",
"                                                                                                    ",
"                                                                                                    ",
"                                                                                                    ",
"                                                                                                    ",
"OOOOOOOOOOOOXOXOOOOOOOOOOOOOOOOOOOOOOOXOOOOOOOOOOOOOOOOOOOOOXOOOOOOOOOOOOOOOOOOOOOOOOOOOOOOOOOOOOOOO",
"OOOOOOOOOOOOOOOOOOOOOOOOOOOOOOOOOOOOOOOXOOOOOOOOOOOOOOOOOOOOOOOOOOOOOOOOOOOOOXXOOOOOOOOOOOOOOOOOOOOO",
"OOOOOOOOOOOOOOOOOOOOXOOOOOOOOOOOOXOXOOOXOOOOXOXXOOOOOOOOOXOOOOOOOOOOOOOOXOOOOOOOOXOXOOOOOOOOOOOOOOOO",
"OOO OOOOOOOOOOOOOOOOXXOOOOOOOOOOOOOOOXOOOOOOOOOOOOOOOOOOOXOOOOOOOOOOOOOOXOOOOOOOOOOOXOOXOOOOOOOOO OO",
"OOO OOOOOOOOOOOOXOOOOOOOOOOOOOOOOOXOOOOOOOXOXOOOOOOOOOOOOOOOOOOOOOOOOOOOOXOOOOXOOOOXOOOOOOOOOOOOO OO",
"OOO OOOOOOOOOOOOOOOOOXOOOOOOOOOOOOOOOOOXOOOOOOOOOOOOOOOOOOXOOOOOOOOOOOOOOOOOOXOXOOOXOOOOOOOOOOOOO OO",
"OOO OOOOOOOOOOXOXOOXXOOXXOOXOOOOOOOOOOOXOOOOOOOOOOOOOOOOOXOOOXOOOOOOOOOOOOOOOOOOOOXOOXOOOOOOOOOOO OO",
"OOO OOOOOOOOOOOOOOOOOXOXOXOOOOOOOOOOXOOOOOOOOOOOOOOOOOOOOOOOOOOOXXOOOOOOOOOOOXOOXOOOOOOOXOXXOOOOO OO",
"OOO OOOOOOOOOXOOXOOOOOOOOOOOOXOOOOOOXOOOOOOOOOOOOOOOOOOOOOOXOOOOOXXOOOOXXOOOOOXOOOOOOOOOOOOOOOOOO OO",
"OOO       OXOXOOXOOXOOOXXOOOOOOOOOOXOOOOOOOOOOOOOOOOOOOOOXXOXXOOXOOOOOOOOOXOOOOOOXOOXOOOOOOOOOOOO OO",
"OOOOOXOOOOOXXOOOOOOXOOOOOOXOOOOOOOOOOOXOOXOOOOOOOOOXOOOOOOOOOXOOXOOOOOOOOOOOOOOOOOOOOOOOXO        OO",
"OOOOOOXXOXOOOOXOOOOOXOOXXOOXOOXOOOXOOXOOOOOOOOOOOOOXOOOOOOOOOOOOOOOOXOOOOXOOOOOOOOOXOOOXXXOOOOOOOOOO",
"OOOOOOOOOOOOOOOOOXXOOXOOXOOOXOOXOXOOOOOOOOOOXOXOOOOOOXXOOOXOOOOOOOOXXXOXOOXOOOOXOOOOOOXXOOOOOOOOOOOO",
"OOOOOOOOOOXOXOOXOOOOOOOOOXOOOOOXOOXOOXOOOOXXOOOOOOOXOOOOXOOOOOXOXOXXXOOOOOOOOOOXOOOXXOOOOOOOOOOOOOOO"
};
