/* XPM */
static char *_03004690ec94519ffef8824d5b9f330roCDY5TD3cD442sn[] = {
/* columns rows colors chars-per-pixel */
"50 50 43 1 ",
"  c #66473C",
". c #6E4A3F",
"X c #70493D",
"o c #754C3F",
"O c #6B4B40",
"+ c #795548",
"@ c #FF1F00",
"# c #805B4F",
"$ c #856055",
"% c #856359",
"& c #8A675E",
"* c #8F756E",
"= c #947C75",
"- c #947C76",
"; c #008700",
": c #008E00",
"> c #009800",
", c #00A100",
"< c #00B400",
"1 c #22AE00",
"2 c #00C000",
"3 c #00C41F",
"4 c #41C200",
"5 c #52D400",
"6 c #71FF00",
"7 c #00BA43",
"8 c #00D167",
"9 c #71DB44",
"0 c #FF9300",
"q c #FFC600",
"w c #FEF800",
"e c #FDFC33",
"r c #998179",
"t c #9E867E",
"y c #A1887F",
"u c #FF1C8B",
"i c #D300FF",
"p c #00A8FF",
"a c #9C8780",
"s c #9E8983",
"d c #9E8A83",
"f c #A18B84",
"g c #81E1A1",
/* pixels */
"4;484;4;>45,4482,4;,4>44,49445344;464pppwppp2434,4",
"9,>,,4844;4232,46,;45,43484,2,84>444,ppwwwpp>;4546",
"4,,4344142944,1>4,774242424,44,,4,<1,pppwppp8;1;,4",
",645,42;;448,4447444144,9434,54243:;42ppppp444;449",
"4>2446@@@68;4<7;4;82464,2442424143:;;;<ppp4,<;4434",
";4,22@@@@@24,4245474,2,+++O+4,,4344:;;;;;;642492<4",
"42;4@@@q@@@>4,4>4241244O+o+o464,428:;;;;;,4,>42;42",
",,48@@qqq@@;4247474744++441++44;44<44>::;4844,845,",
"24;;@@@q@@@4;5;;2482,9+O;24oO;54;>4;464,::4<34:4,4",
"<2;;;@@@@@2;,44246244,o+44<+++48:444<4<4;4,44,4642",
"49;;;;@@@,344234374724++4;4;oO4;4:2,5484;54>1;4<38",
"4;4>;;;;;4,4>424;,4<4+O;<424++4944:4244,4>4,;4>4;;",
";446;;;;144>4,7144242o+,;465+o,4,314,9,4547444;4;4",
">4<448;;4;444447;741,O+42;24++o<,448444,4:4<6;4;84",
"5;4,34;;4,41,64784,44+iii2484OX4,4,42,<8446,4<:44>",
"4;44148;<474,77,444<2+iiii;;4o+45<4,4244,,44,44274",
";,>242,;42424,4,,>;4+oieiii24+X,448434:644<843434,",
"<44,43452,<,44,444;4o+eeeii4>++474454,44;144:4>224",
"4;54224,4:44,54,3,45+Oieiii84oO;14774292,82>4<4,1;",
"4424847494,74,,44,7;++iiii;;;X+44>446444424,24,449",
">;,34;427444<24>4+O++O+++o+o+O++o.7<84<:434,472624",
"4<,4;46442>;++O++yyyyyytrytry+X-ry+o+O ,44800044;8",
",44413474+++yyyyy-rytry-yyyy-+.ryr*y-y*oO 0000024,",
";98;;47O+ytytyfysytryyyryrftto+--yr*rryrr*o+q000;4",
"442424%ydtyfttydytyytyry-try=X.tr-rty*=*r*-y q0049",
"14,45;+syddtytyfyyyrytyty=yr=++=-ry-r=rr*y*yo0002;",
"8;4<44Ofytytyyttyrtyyyrtryryt+.t-yryr=y=-ry*+00;;;",
"24>427#&+yyyyftdyyytrttrt=yt=..tr-yr*r*rt.X O0;;;;",
"454;,4,+#%+#fyyytyrydstryrttr.+ryry--ry+O+ O;;;;;3",
">2,64;4O+%&+++.++yyytrytyyrtt+.y-t+O+o.OXO +;;;;24",
"244,449+#+#%*.+$+++#+++.++.+oo+.+++..OO+O OO;4,449",
"42,4>,44#&&+++++$+.+..o++.+.+..+O+OO +oOoO+4;477,;",
"<4214277%#+#+#%O++++#+#+O+oOOXoXOX+OXOO+O+O;;4,744",
"4,34,4;4+#$&+O+#+#+O+O+O+X+X+O+O+OO Oo XO +43<4>,5",
"648,42474O#%#+#O+O+#++#O+OO+O+X+OX+O+ OO X14,4,243",
",;4;44,4;+&#+#+%#+#+OO++X++X+O+O+OOoO.X + ;2,645,,",
";,94327464+O%&O#+++X++#OOO+oo+XoOX+O+OoOX44842,4<4",
",4,;454,4>%+##%#+O#+OXO+o+O+OXO+O+O XO+O ;,4;4<8,4",
"53<;24,4:4+O+O++#++O+++OXo+Oo+OXXX+O +O X4329,429<",
"4244,24372;#+%#O+#++#OX+OOo+OOOOO+XoOO +4;7444,>44",
",8<6>;,4:4;%O%%++#+X+X+#++OOX+oXoOOXX+OO944,8,,48;",
"5424;25;;34+##+#O+O+O++O+X+X+OX+O+X +O +24;3447544",
"4,6474224;;4O#+%#++O++OO+O+XO+OX+o+XXO+246<42,4242",
";,4,14<4944,+%O+O+O+O#+X++O+oX+OX+O+O O42424134;>4",
"4>944;4;7;547+#++#++++O+OX+OOOoXOXOO+o4,<84,24744;",
",44;,3;4;4124,4,u+O#+O+X+OO+X+O++O,5742424<48249,8",
"4824>4846<;434434uuu;;;>24,44;83;g442<8,524,4>;246",
"14274;4;42474,242;;;;;;,49,4;4244;3,4>4;4>34,484,4",
",54;24547;14,>454,;;;;<4844,14;>;,47468ppp4;45;412",
"84>464;4<44;,4,4,8;;;424,6,4434248,45;ppppp434464,"
};
