/* XPM */
static char *result[] = {
/* columns rows colors chars-per-pixel */
"50 50 27 1 ",
"  c black",
". c #3E2723",
"X c #4E342E",
"o c #5D4037",
"O c #00796B",
"+ c #FF1F00",
"@ c #008700",
"# c #009800",
"$ c #00A100",
"% c #00B400",
"& c #22AE00",
"* c #388E3C",
"= c #689F38",
"- c #00C000",
"; c #00C41F",
": c #41C200",
"> c #52D400",
", c #71FF00",
"< c #00BA43",
"1 c #4CAF50",
"2 c #00D167",
"3 c #71DB44",
"4 c #FEF800",
"5 c #8BC34A",
"6 c #009688",
"7 c #00A8FF",
"8 c #AED581",
/* pixels */
":@:2:@:@#:>$::                     ,:7774777-:;:$:",
"3$#$$:2::@:-;-                     :$7744477#@:>:,",
":$$:;::&:-3::$                     &$77747772@&@$:",
"$,:>$:        555====55588888888555        :::@::3",
":#-::,        555====55588888888555        $%@::;:",
"@:$--+        555====55588888888555        :-:3-%:",
":-@   5555555588888885555555888888855555555   -@:-",
"$$:   5555555588888885555555888888855555555   2:>$",
"-:@   5555555588888885555555888888855555555   @:$:",
"%-@   ====888888855555558888888855588888888   :,:-",
":3@   ====888888855555558888888855588888888   :-;2",
":@:   ====888888855555558888888855588888888   #:@@",
"   11111111111111111111155555555***11111111555    ",
"   11111111111111111111155555555***11111111555    ",
"   11111111111111111111155555555***11111111555    ",
"   11111111111111111111155555555***11111111555    ",
"   5551111**************55555555***11111111***    ",
"   5551111**************55555555***11111111***    ",
"   5551111**************55555555***11111111***    ",
"   5555555****55555555551111111155555555555***    ",
"   5555555****55555555551111111155555555555***    ",
"   5555555****55555555551111111155555555555***    ",
"   ***111111111111111***********11111111111555    ",
"   ***111111111111111***********11111111111555    ",
"   ***111111111111111***********11111111111555    ",
"   66611111111OOO666666611111111111OOOO6666666    ",
"   66611111111OOO666666611111111111OOOO6666666    ",
"   66611111111OOO666666611111111111OOOO6666666    ",
"   OOO66666666111111166666666666666OOOOOOOO111    ",
"   OOO66666666111111166666666666666OOOOOOOO111    ",
"   OOO66666666111111166666666666666OOOOOOOO111    ",
"   OOO111111116661111111OOOO111111111116666OOO    ",
"   OOO111111116661111111OOOO111111111116666OOO    ",
"   OOO111111116661111111OOOO111111111116666OOO    ",
"   66611111111666OOOOOOO6666111111166666666OOO    ",
"   66611111111666OOOOOOO6666111111166666666OOO    ",
"   66611111111666OOOOOOO6666111111166666666OOO    ",
"   666666666661111111111OOOO666666611111111666    ",
"   666666666661111111111OOOO666666611111111666    ",
"   666666666661111111111OOOO666666611111111666    ",
"   666666666661111111111OOOO666666611111111666    ",
">:-       6666OOO6666666OOOO66666666666       <>::",
":$,       6666OOO6666666OOOO66666666666       :-:-",
"@$:       6666OOO6666666OOOO66666666666       :@#:",
":#3::@:@<@    ooo....XXXXXXX6666...    $%2:$-:<::@",
"$::@$;@:@:    ooo....XXXXXXX6666...    :-:%:2-:3$2",
":2-:#:2:,%    ooo....XXXXXXX6666...    $>-:$:#@-:,",
"&:-<:@    XXXX...XXXX...XXXXXXXX...XXXX    :$:2:$:",
"$>:@-:    XXXX...XXXX...XXXXXXXX...XXXX    @:>@:&-",
"2:#:,:    XXXX...XXXX...XXXXXXXX...XXXX    :;::,:$"
};
